<svg width="56" height="56" viewBox="0 0 56 56" fill="none" xmlns="http://www.w3.org/2000/svg">
<path d="M23.6523 7.8274C23.6538 7.82818 23.6557 7.82818 23.6575 7.82841L23.6481 7.82818C23.6492 7.82706 23.6509 7.8265 23.6523 7.8274ZM20.6062 49.775L20.606 49.7752H20.6067V49.775H20.6062ZM51.4719 18.277C51.387 21.2065 47.7677 24.2089 45.2735 25.323C45.9697 25.6811 46.9556 25.8765 47.4276 26.5107C48.0942 27.4043 47.5989 28.76 46.5596 29.088C44.2752 30.1297 41.6265 31.1992 39.3107 32.1717C39.5022 35.4427 39.6601 38.7262 39.7897 42.0032C40.0902 44.6944 39.6624 47.5098 36.3567 47.5962C36.7515 48.2728 36.6946 49.0465 36.7544 49.7928C36.7378 51.1079 35.69 51.2612 34.6318 51.3005C31.6217 51.8147 30.8177 50.3479 31.7956 47.6292C29.229 47.6436 26.5093 47.6686 23.9334 47.6856C24.5812 49.5549 24.6516 51.3839 22.1661 51.3003C19.1941 51.8022 18.365 50.4064 19.3056 47.6855C14.5041 47.2253 16.263 41.2659 15.9118 37.9648C-2.25935 41.8613 4.44856 29.4944 15.8253 25.5143C15.5377 17.3841 15.5317 15.9177 24.2386 16.414C23.9297 15.4703 24.0516 14.4282 23.9585 13.4431C23.8664 12.0908 23.6308 10.6676 23.9946 9.33525C22.6469 9.45532 22.0277 8.37037 22.3487 7.15988C22.5415 6.5114 22.5707 4.6793 23.6478 5.40585C23.5703 5.42388 23.5661 5.49713 23.5111 5.53196C23.444 5.55033 23.4786 5.65717 23.4352 5.69021C23.3726 5.76178 23.4177 5.84746 23.4753 5.90514C23.5073 6.56673 23.5276 7.24892 23.6229 7.89863C23.6349 7.92293 23.7163 7.83199 23.6575 7.82818C26.4427 7.69524 29.3309 7.77521 32.1192 7.73757C32.112 7.21565 32.1482 6.53033 32.1655 6.01165C29.3376 5.85765 26.3828 6.09465 23.6478 5.55133C23.7226 5.49545 23.8124 5.50597 23.8974 5.48033C23.8103 5.4558 23.8882 5.42186 23.9073 5.37124C23.8822 5.33204 23.83 5.35074 23.7982 5.32285C26.6253 4.53941 29.7405 4.60841 32.661 4.65567C33.6043 4.91876 33.6648 5.83951 33.6181 6.66461C33.7743 8.32737 33.6558 9.39898 31.6728 9.29639C32.0477 10.2567 31.8882 11.3423 31.9931 12.3525C32.0848 13.7056 32.3217 15.1301 31.9559 16.4628C33.9017 16.6198 35.9806 16.194 37.8472 16.8283C40.6812 15.4166 51.155 13.4431 51.4719 18.277ZM32.2561 6.01636C32.2714 6.02039 32.2891 6.02341 32.3035 6.01826C32.2877 6.01767 32.2719 6.01704 32.2561 6.01636ZM32.2452 7.73746C32.2555 7.73668 32.3009 7.73701 32.3018 7.73511C32.2829 7.73288 32.2638 7.73367 32.2452 7.73746ZM32.1191 7.89549L32.1193 7.89706V7.8825C32.1185 7.88679 32.1184 7.89118 32.1191 7.89549ZM15.8998 36.6976C15.892 33.2534 15.8751 29.7282 15.8319 26.2895C7.68211 31.5832 -0.740176 39.4347 15.8998 36.6976ZM25.2017 9.36292C25.6937 11.6161 25.4573 14.1314 25.2031 16.4196C27.0214 16.4354 28.9378 16.4544 30.7515 16.4597C30.2664 14.1701 30.4773 11.6352 30.7635 9.30938C28.9511 9.38375 27.0142 9.42642 25.2017 9.36292ZM23.1796 47.6882C23.0023 47.6884 20.4063 47.6911 20.3072 47.6913C20.4736 48.3873 20.644 49.0596 20.5946 49.7909C20.5963 49.7912 20.5955 49.7919 20.5955 49.7919C20.6 49.7895 20.605 49.7992 20.607 49.7941C20.6076 49.7939 20.6098 49.7776 20.6075 49.777C20.6074 49.776 20.6069 49.7753 20.6069 49.7752C21.3657 49.8037 22.1224 49.7015 22.8798 49.792C22.8773 49.8276 22.94 49.8359 22.9539 49.8102C22.9925 49.0893 23.0097 48.3841 23.1796 47.6882ZM35.6408 47.6572C35.6381 47.6379 35.6344 47.6187 35.6299 47.5997C34.6711 47.612 33.721 47.6178 32.7612 47.6222C32.921 48.349 33.1154 49.0379 33.0602 49.7909C33.0619 49.7912 33.0611 49.7919 33.0611 49.7919C33.0656 49.7895 33.0705 49.7992 33.0726 49.7941C33.0732 49.7939 33.0754 49.7776 33.073 49.777C33.0729 49.776 33.0724 49.7753 33.0724 49.7752C33.8312 49.8037 34.588 49.7015 35.3453 49.792C35.3426 49.8276 35.4055 49.8359 35.4193 49.8102C35.4189 49.8041 35.4212 49.7994 35.4259 49.7925C35.4356 49.0627 35.5058 48.3619 35.6408 47.6572ZM38.8775 32.8573C38.8808 32.6785 38.8904 32.5085 38.9041 32.3426C38.4645 32.5264 38.025 32.713 37.5842 32.893C37.6094 35.9425 36.5 38.8845 35.9912 41.871C35.6561 43.5298 33.0732 43.2552 33.0424 41.5813C32.9508 39.3268 32.6298 36.9749 33.1518 34.7577C31.7518 35.36 30.0725 36.0606 28.6569 36.6588C27.9189 36.9453 26.6927 37.5792 25.9268 37.7294C24.4533 37.8928 22.8842 37.2125 22.2298 35.837C20.6827 36.5366 19.1321 37.2642 17.4623 37.622C17.4617 39.6231 17.4644 42.2372 17.4415 44.2537C17.4316 45.3046 18.3465 46.2425 19.3992 46.2601C25.1052 46.3336 30.8242 46.329 36.5312 46.3653C38.8097 46.1592 38.7289 44.2424 38.7406 42.4634C38.7691 39.2587 38.85 36.0567 38.8775 32.8573ZM34.7092 40.5101C35.4458 38.0771 35.9619 35.5634 36.842 33.1961C35.9217 33.5818 34.8715 34.0233 33.9571 34.4179C34.44 36.516 34.5366 38.7413 34.6141 40.9064C34.6453 40.7742 34.6776 40.6423 34.7092 40.5101ZM34.6599 41.5225C34.6593 41.5201 34.6603 41.5168 34.6587 41.5143C34.6599 41.5363 34.6608 41.5207 34.6599 41.5225ZM39.2304 32.2054L39.1811 32.2262L39.2107 32.2894C39.2208 32.2624 39.2274 32.2342 39.2304 32.2054ZM45.2347 27.0052C42.5868 25.7696 42.3267 26.0938 39.8607 27.3744C38.4169 28.0908 36.3062 29.1762 34.858 29.8752C32.4089 31.0627 29.8778 32.3068 27.4231 33.4658C24.7189 35.0241 24.0506 33.6314 22.1726 31.851C21.8319 31.5453 21.5307 31.1114 21.145 30.865C20.7617 30.7727 19.9191 30.8745 20.1383 31.4598C19.8479 30.9394 20.1843 30.7517 20.5412 30.4464C21.8233 29.4937 24.0014 32.7471 25.3048 32.8763C26.8528 32.4085 28.2068 31.2994 29.7012 30.6379C28.1597 29.9782 26.7124 29.0912 25.306 28.1739C24.0198 27.461 24.5766 25.344 26.0412 25.3429C28.9777 25.9484 31.9223 27.091 34.68 28.1492C35.7374 27.6217 38.0375 26.4745 39.076 25.9571C38.9794 24.4899 38.8067 23.0429 38.8385 21.5797C38.9959 19.9377 38.5197 17.7126 36.4432 17.8667C30.7348 18.0724 24.9697 18.0086 19.2492 18.0444C18.2099 18.1445 17.3739 19.104 17.4164 20.1489C17.4628 25.4952 17.4104 31.0527 17.4523 36.3865C18.985 36.1221 20.5165 35.8096 22.0084 35.4007C21.3139 34.1342 20.4781 32.9001 20.0122 31.5329C20.158 31.6707 20.2572 31.8669 20.3811 32.0299C20.3052 31.8328 20.3875 31.9644 20.488 31.9968C20.491 31.9236 20.4106 31.8218 20.3956 31.74C22.0536 33.4443 23.1203 37.642 26.2211 36.4037C32.6129 33.3058 40.2126 30.6482 46.1082 27.3782C46.1084 27.3778 45.2347 27.0052 45.2347 27.0052ZM33.56 28.6974C31.1487 28.3886 28.8161 27.5113 26.446 26.9758C27.8943 27.9264 29.558 28.7783 30.6241 30.1689C31.6092 29.6745 32.598 29.1895 33.5844 28.6984C33.5762 28.6979 33.5681 28.6978 33.56 28.6974ZM49.8462 18.1062C48.4997 15.4761 41.167 17.1361 38.6567 17.3354C40.1551 18.4879 39.865 20.5162 39.7477 22.171C39.6308 23.3917 39.6736 24.6328 39.356 25.8174C40.8762 24.9346 42.6761 24.1518 44.4028 24.9541C46.1224 22.999 49.6585 20.8528 49.8462 18.1062ZM33.0721 49.775L33.0718 49.7752H33.0725V49.775H33.0721Z" fill="black"/>
</svg>
